<svg width="1024" height="1024" viewBox="0 0 1024 1024" fill="none" xmlns="http://www.w3.org/2000/svg">
<path d="M230.025 85.9698C176.083 123.018 130.927 168.829 95.9892 222.098C60.8739 275.462 36.2905 336.204 22.8938 402.678C9.52439 468.922 10.0564 538.534 24.4081 609.56C38.1323 677.026 64.1072 739.33 101.637 794.746C139.249 850.392 185.21 897.331 238.128 934.256C290.992 971.141 350.5 997.416 414.987 1012.35C479.201 1027.24 545.83 1027.85 613.345 1014.24C649.825 1006.91 689.715 993.137 731.992 973.261C773.806 953.548 813.709 926.88 850.544 893.907C887.255 861.084 920.283 819.743 948.768 771.025C971.96 731.314 989.354 684.838 1000.57 632.493L861.144 660.601C844.814 707.078 816.206 751.965 775.948 794.297C730.778 841.82 670.029 873.556 595.379 888.622C573.496 892.997 550.373 895.252 526.635 895.252C513.907 895.252 500.742 894.6 487.482 893.323C449.12 889.736 410.567 879.235 373.009 862.117C335.398 845.053 299.914 820.504 267.582 789.189C235.209 757.942 207.133 717.702 184.146 669.636L170.885 641.907L1010.76 472.685C1010.14 467.93 1009.37 462.088 1008.34 454.901C1005.33 433.789 1002.29 415.87 999.053 400.138C984.893 330.457 958.304 267.8 920.037 213.892C881.484 159.726 834.828 114.88 781.432 80.6171C727.981 46.2591 668.624 22.3619 605.051 9.52344C573.578 3.19254 541.614 3.8147e-06 510.019 3.8147e-06C477.918 3.8147e-06 445.313 3.31487 413.077 9.8088C345.466 23.408 283.857 49.0169 230.025 85.9698ZM576.348 134.484C620.958 144.103 662.144 160.378 698.678 182.876C735.512 205.551 767.258 234.447 793.082 268.805C818.88 303.109 837.297 339.912 847.802 378.251L854.595 403.004L156.193 543.724L152.755 518.346C147.434 479.056 150.013 437.933 160.408 396.225C170.762 354.653 188.77 315.744 213.858 280.57C238.687 245.791 269.915 214.925 306.64 188.908C343.869 162.566 387.525 144.198 436.473 134.348C484.248 124.702 531.287 124.797 576.348 134.484Z" fill="#25313D"/>
</svg>
